<svg width="24" height="24" viewBox="0 0 24 24" fill="none" xmlns="http://www.w3.org/2000/svg">
<path fill-rule="evenodd" clip-rule="evenodd" d="M8.75 6.99995C8.75 5.20503 10.2051 3.74995 12 3.74995C13.7949 3.74995 15.25 5.20503 15.25 6.99995C15.25 8.79488 13.7949 10.25 12 10.25C10.2051 10.25 8.75 8.79488 8.75 6.99995ZM12 2.24995C9.37665 2.24995 7.25 4.3766 7.25 6.99995C7.25 9.62331 9.37665 11.75 12 11.75C14.6234 11.75 16.75 9.62331 16.75 6.99995C16.75 4.3766 14.6234 2.24995 12 2.24995ZM8 13.25C6.74022 13.25 5.53204 13.7504 4.64124 14.6412C3.75045 15.532 3.25 16.7402 3.25 18V21C3.25 21.4142 3.58579 21.75 4 21.75C4.41421 21.75 4.75 21.4142 4.75 21V18C4.75 17.138 5.09241 16.3114 5.7019 15.7019C6.3114 15.0924 7.13805 14.75 8 14.75H16C16.862 14.75 17.6886 15.0924 18.2981 15.7019C18.9076 16.3114 19.25 17.138 19.25 18V21C19.25 21.4142 19.5858 21.75 20 21.75C20.4142 21.75 20.75 21.4142 20.75 21V18C20.75 16.7402 20.2496 15.532 19.3588 14.6412C18.468 13.7504 17.2598 13.25 16 13.25H8Z" fill="black"/>
</svg>
